<?xml version="1.0" encoding="UTF-8" standalone="no"?>
<!DOCTYPE svg PUBLIC "-//W3C//DTD SVG 1.1//EN"
 "http://www.w3.org/Graphics/SVG/1.1/DTD/svg11.dtd">
<!-- Generated by graphviz version 13.1.2 (0)
 -->
<!-- Title: Entity Relationship Diagram created by erdantic Pages: 1 -->
<svg width="1258pt" height="564pt"
 viewBox="0.00 0.00 1258.00 564.00" xmlns="http://www.w3.org/2000/svg" xmlns:xlink="http://www.w3.org/1999/xlink">
<g id="graph0" class="graph" transform="scale(1 1) rotate(0) translate(4 559.6)">
<title>Entity Relationship Diagram created by erdantic</title>
<polygon fill="white" stroke="none" points="-4,4 -4,-559.6 1253.5,-559.6 1253.5,4 -4,4"/>
<text xml:space="preserve" text-anchor="middle" x="624.75" y="-5.95" font-family="Times New Roman,Times,Liberation Serif,serif" font-size="9.00" fill="#a8a8a8">Created by erdantic v1.2.0 &lt;https://github.com/drivendataorg/erdantic&gt;</text>
<!-- __main__.Brep -->
<g id="node1" class="node">
<title>__main__.Brep</title>
<g id="a_node1"><a xlink:title="__main__.Brep&#10;&#10;BREPs collection &#45; 3D CAD model representations.&#10;">
<polygon fill="none" stroke="black" points="830.25,-397.17 830.25,-419.67 1052.25,-419.67 1052.25,-397.17 830.25,-397.17"/>
<text xml:space="preserve" text-anchor="start" x="927" y="-404.37" font-family="Times New Roman,Times,Liberation Serif,serif" font-weight="bold" font-size="14.00">Brep</text>
<polygon fill="none" stroke="black" points="830.25,-374.67 830.25,-397.17 939.75,-397.17 939.75,-374.67 830.25,-374.67"/>
<text xml:space="preserve" text-anchor="start" x="879.75" y="-380.87" font-family="Times New Roman,Times,Liberation Serif,serif" font-size="14.00">id</text>
<polygon fill="none" stroke="black" points="939.75,-374.67 939.75,-397.17 1052.25,-397.17 1052.25,-374.67 939.75,-374.67"/>
<text xml:space="preserve" text-anchor="start" x="989.25" y="-380.87" font-family="Times New Roman,Times,Liberation Serif,serif" font-size="14.00">str</text>
<polygon fill="none" stroke="black" points="830.25,-352.17 830.25,-374.67 939.75,-374.67 939.75,-352.17 830.25,-352.17"/>
<text xml:space="preserve" text-anchor="start" x="873.75" y="-358.37" font-family="Times New Roman,Times,Liberation Serif,serif" font-size="14.00">user</text>
<polygon fill="none" stroke="black" points="939.75,-352.17 939.75,-374.67 1052.25,-374.67 1052.25,-352.17 939.75,-352.17"/>
<text xml:space="preserve" text-anchor="start" x="983.25" y="-358.37" font-family="Times New Roman,Times,Liberation Serif,serif" font-size="14.00">User</text>
<polygon fill="none" stroke="black" points="830.25,-329.67 830.25,-352.17 939.75,-352.17 939.75,-329.67 830.25,-329.67"/>
<text xml:space="preserve" text-anchor="start" x="859.12" y="-335.87" font-family="Times New Roman,Times,Liberation Serif,serif" font-size="14.00">orig_path</text>
<polygon fill="none" stroke="black" points="939.75,-329.67 939.75,-352.17 1052.25,-352.17 1052.25,-329.67 939.75,-329.67"/>
<text xml:space="preserve" text-anchor="start" x="989.25" y="-335.87" font-family="Times New Roman,Times,Liberation Serif,serif" font-size="14.00">str</text>
<polygon fill="none" stroke="black" points="830.25,-307.17 830.25,-329.67 939.75,-329.67 939.75,-307.17 830.25,-307.17"/>
<text xml:space="preserve" text-anchor="start" x="859.5" y="-313.37" font-family="Times New Roman,Times,Liberation Serif,serif" font-size="14.00">end_time</text>
<polygon fill="none" stroke="black" points="939.75,-307.17 939.75,-329.67 1052.25,-329.67 1052.25,-307.17 939.75,-307.17"/>
<text xml:space="preserve" text-anchor="start" x="983.62" y="-313.37" font-family="Times New Roman,Times,Liberation Serif,serif" font-size="14.00">float</text>
<polygon fill="none" stroke="black" points="830.25,-284.67 830.25,-307.17 939.75,-307.17 939.75,-284.67 830.25,-284.67"/>
<text xml:space="preserve" text-anchor="start" x="874.12" y="-290.87" font-family="Times New Roman,Times,Liberation Serif,serif" font-size="14.00">step</text>
<polygon fill="none" stroke="black" points="939.75,-284.67 939.75,-307.17 1052.25,-307.17 1052.25,-284.67 939.75,-284.67"/>
<text xml:space="preserve" text-anchor="start" x="948.38" y="-290.87" font-family="Times New Roman,Times,Liberation Serif,serif" font-size="14.00">Optional[list[str]]</text>
<polygon fill="none" stroke="black" points="830.25,-262.17 830.25,-284.67 939.75,-284.67 939.75,-262.17 830.25,-262.17"/>
<text xml:space="preserve" text-anchor="start" x="876" y="-268.37" font-family="Times New Roman,Times,Liberation Serif,serif" font-size="14.00">f3d</text>
<polygon fill="none" stroke="black" points="939.75,-262.17 939.75,-284.67 1052.25,-284.67 1052.25,-262.17 939.75,-262.17"/>
<text xml:space="preserve" text-anchor="start" x="948.38" y="-268.37" font-family="Times New Roman,Times,Liberation Serif,serif" font-size="14.00">Optional[list[str]]</text>
<polygon fill="none" stroke="black" points="830.25,-239.67 830.25,-262.17 939.75,-262.17 939.75,-239.67 830.25,-239.67"/>
<text xml:space="preserve" text-anchor="start" x="874.88" y="-245.87" font-family="Times New Roman,Times,Liberation Serif,serif" font-size="14.00">png</text>
<polygon fill="none" stroke="black" points="939.75,-239.67 939.75,-262.17 1052.25,-262.17 1052.25,-239.67 939.75,-239.67"/>
<text xml:space="preserve" text-anchor="start" x="948.38" y="-245.87" font-family="Times New Roman,Times,Liberation Serif,serif" font-size="14.00">Optional[list[str]]</text>
<polygon fill="none" stroke="black" points="830.25,-217.17 830.25,-239.67 939.75,-239.67 939.75,-217.17 830.25,-217.17"/>
<text xml:space="preserve" text-anchor="start" x="876.38" y="-223.37" font-family="Times New Roman,Times,Liberation Serif,serif" font-size="14.00">jpg</text>
<polygon fill="none" stroke="black" points="939.75,-217.17 939.75,-239.67 1052.25,-239.67 1052.25,-217.17 939.75,-217.17"/>
<text xml:space="preserve" text-anchor="start" x="948.38" y="-223.37" font-family="Times New Roman,Times,Liberation Serif,serif" font-size="14.00">Optional[list[str]]</text>
<polygon fill="none" stroke="black" points="830.25,-194.67 830.25,-217.17 939.75,-217.17 939.75,-194.67 830.25,-194.67"/>
<text xml:space="preserve" text-anchor="start" x="878.62" y="-200.87" font-family="Times New Roman,Times,Liberation Serif,serif" font-size="14.00">stl</text>
<polygon fill="none" stroke="black" points="939.75,-194.67 939.75,-217.17 1052.25,-217.17 1052.25,-194.67 939.75,-194.67"/>
<text xml:space="preserve" text-anchor="start" x="948.38" y="-200.87" font-family="Times New Roman,Times,Liberation Serif,serif" font-size="14.00">Optional[list[str]]</text>
<polygon fill="none" stroke="black" points="830.25,-172.17 830.25,-194.67 939.75,-194.67 939.75,-172.17 830.25,-172.17"/>
<text xml:space="preserve" text-anchor="start" x="874.88" y="-178.37" font-family="Times New Roman,Times,Liberation Serif,serif" font-size="14.00">smt</text>
<polygon fill="none" stroke="black" points="939.75,-172.17 939.75,-194.67 1052.25,-194.67 1052.25,-172.17 939.75,-172.17"/>
<text xml:space="preserve" text-anchor="start" x="948.38" y="-178.37" font-family="Times New Roman,Times,Liberation Serif,serif" font-size="14.00">Optional[list[str]]</text>
<polygon fill="none" stroke="black" points="830.25,-149.67 830.25,-172.17 939.75,-172.17 939.75,-149.67 830.25,-149.67"/>
<text xml:space="preserve" text-anchor="start" x="850.88" y="-155.87" font-family="Times New Roman,Times,Liberation Serif,serif" font-size="14.00">feature_dino</text>
<polygon fill="none" stroke="black" points="939.75,-149.67 939.75,-172.17 1052.25,-172.17 1052.25,-149.67 939.75,-149.67"/>
<text xml:space="preserve" text-anchor="start" x="942.75" y="-155.87" font-family="Times New Roman,Times,Liberation Serif,serif" font-size="14.00">Optional[list[float]]</text>
<polygon fill="none" stroke="black" points="830.25,-127.17 830.25,-149.67 939.75,-149.67 939.75,-127.17 830.25,-127.17"/>
<text xml:space="preserve" text-anchor="start" x="833.25" y="-133.37" font-family="Times New Roman,Times,Liberation Serif,serif" font-size="14.00">feature_clip_visual</text>
<polygon fill="none" stroke="black" points="939.75,-127.17 939.75,-149.67 1052.25,-149.67 1052.25,-127.17 939.75,-127.17"/>
<text xml:space="preserve" text-anchor="start" x="942.75" y="-133.37" font-family="Times New Roman,Times,Liberation Serif,serif" font-size="14.00">Optional[list[float]]</text>
<polygon fill="none" stroke="black" points="830.25,-104.67 830.25,-127.17 939.75,-127.17 939.75,-104.67 830.25,-104.67"/>
<text xml:space="preserve" text-anchor="start" x="839.25" y="-110.87" font-family="Times New Roman,Times,Liberation Serif,serif" font-size="14.00">feature_clip_text</text>
<polygon fill="none" stroke="black" points="939.75,-104.67 939.75,-127.17 1052.25,-127.17 1052.25,-104.67 939.75,-104.67"/>
<text xml:space="preserve" text-anchor="start" x="942.75" y="-110.87" font-family="Times New Roman,Times,Liberation Serif,serif" font-size="14.00">Optional[list[float]]</text>
</a>
</g>
</g>
<!-- __main__.User -->
<g id="node2" class="node">
<title>__main__.User</title>
<g id="a_node2"><a xlink:title="__main__.User&#10;&#10;Users collection &#45; stores human users and ML models.&#10;">
<polygon fill="none" stroke="black" points="1160.25,-407.42 1160.25,-429.92 1249.5,-429.92 1249.5,-407.42 1160.25,-407.42"/>
<text xml:space="preserve" text-anchor="start" x="1191.38" y="-414.62" font-family="Times New Roman,Times,Liberation Serif,serif" font-weight="bold" font-size="14.00">User</text>
<polygon fill="none" stroke="black" points="1160.25,-384.92 1160.25,-407.42 1219.5,-407.42 1219.5,-384.92 1160.25,-384.92"/>
<text xml:space="preserve" text-anchor="start" x="1184.62" y="-391.12" font-family="Times New Roman,Times,Liberation Serif,serif" font-size="14.00">id</text>
<polygon fill="none" stroke="black" points="1219.5,-384.92 1219.5,-407.42 1249.5,-407.42 1249.5,-384.92 1219.5,-384.92"/>
<text xml:space="preserve" text-anchor="start" x="1227.75" y="-391.12" font-family="Times New Roman,Times,Liberation Serif,serif" font-size="14.00">str</text>
<polygon fill="none" stroke="black" points="1160.25,-362.42 1160.25,-384.92 1219.5,-384.92 1219.5,-362.42 1160.25,-362.42"/>
<text xml:space="preserve" text-anchor="start" x="1163.25" y="-368.62" font-family="Times New Roman,Times,Liberation Serif,serif" font-size="14.00">is_human</text>
<polygon fill="none" stroke="black" points="1219.5,-362.42 1219.5,-384.92 1249.5,-384.92 1249.5,-362.42 1219.5,-362.42"/>
<text xml:space="preserve" text-anchor="start" x="1222.5" y="-368.62" font-family="Times New Roman,Times,Liberation Serif,serif" font-size="14.00">bool</text>
</a>
</g>
</g>
<!-- __main__.Brep&#45;&gt;__main__.User -->
<g id="edge1" class="edge">
<title>__main__.Brep:e&#45;&gt;__main__.User:w</title>
<path fill="none" stroke="black" d="M1062.03,-364.08C1101.73,-369.65 1108.64,-408.93 1145.76,-417.16"/>
<polyline fill="none" stroke="black" points="1052.25,-363.42 1057.24,-363.75"/>
<polyline fill="none" stroke="black" points="1057.24,-363.75 1062.23,-364.09"/>
<polyline fill="none" stroke="black" points="1160.25,-418.67 1155.28,-418.15"/>
<polygon fill="black" stroke="black" points="1154.8,-413.07 1153.76,-423.02 1151.78,-422.81 1152.81,-412.87 1154.8,-413.07"/>
<polyline fill="none" stroke="black" points="1155.28,-418.15 1150.3,-417.63"/>
<polygon fill="black" stroke="black" points="1149.83,-412.56 1148.79,-422.5 1146.8,-422.29 1147.84,-412.35 1149.83,-412.56"/>
<polyline fill="none" stroke="black" points="1150.3,-417.63 1145.33,-417.11"/>
</g>
<!-- __main__.Edit -->
<g id="node3" class="node">
<title>__main__.Edit</title>
<g id="a_node3"><a xlink:title="__main__.Edit&#10;&#10;Edits collection &#45; completed edit attempts.&#10;">
<polygon fill="none" stroke="black" points="228.75,-268.42 228.75,-290.92 435.75,-290.92 435.75,-268.42 228.75,-268.42"/>
<text xml:space="preserve" text-anchor="start" x="319.88" y="-275.62" font-family="Times New Roman,Times,Liberation Serif,serif" font-weight="bold" font-size="14.00">Edit</text>
<polygon fill="none" stroke="black" points="228.75,-245.92 228.75,-268.42 301.5,-268.42 301.5,-245.92 228.75,-245.92"/>
<text xml:space="preserve" text-anchor="start" x="259.88" y="-252.12" font-family="Times New Roman,Times,Liberation Serif,serif" font-size="14.00">id</text>
<polygon fill="none" stroke="black" points="301.5,-245.92 301.5,-268.42 435.75,-268.42 435.75,-245.92 301.5,-245.92"/>
<text xml:space="preserve" text-anchor="start" x="361.88" y="-252.12" font-family="Times New Roman,Times,Liberation Serif,serif" font-size="14.00">str</text>
<polygon fill="none" stroke="black" points="228.75,-223.42 228.75,-245.92 301.5,-245.92 301.5,-223.42 228.75,-223.42"/>
<text xml:space="preserve" text-anchor="start" x="245.62" y="-229.62" font-family="Times New Roman,Times,Liberation Serif,serif" font-size="14.00">request</text>
<polygon fill="none" stroke="black" points="301.5,-223.42 301.5,-245.92 435.75,-245.92 435.75,-223.42 301.5,-223.42"/>
<text xml:space="preserve" text-anchor="start" x="346.88" y="-229.62" font-family="Times New Roman,Times,Liberation Serif,serif" font-size="14.00">Request</text>
<polygon fill="none" stroke="black" points="228.75,-200.92 228.75,-223.42 301.5,-223.42 301.5,-200.92 228.75,-200.92"/>
<text xml:space="preserve" text-anchor="start" x="240" y="-207.12" font-family="Times New Roman,Times,Liberation Serif,serif" font-size="14.00">brep_end</text>
<polygon fill="none" stroke="black" points="301.5,-200.92 301.5,-223.42 435.75,-223.42 435.75,-200.92 301.5,-200.92"/>
<text xml:space="preserve" text-anchor="start" x="355.5" y="-207.12" font-family="Times New Roman,Times,Liberation Serif,serif" font-size="14.00">Brep</text>
<polygon fill="none" stroke="black" points="228.75,-178.42 228.75,-200.92 301.5,-200.92 301.5,-178.42 228.75,-178.42"/>
<text xml:space="preserve" text-anchor="start" x="253.88" y="-184.62" font-family="Times New Roman,Times,Liberation Serif,serif" font-size="14.00">user</text>
<polygon fill="none" stroke="black" points="301.5,-178.42 301.5,-200.92 435.75,-200.92 435.75,-178.42 301.5,-178.42"/>
<text xml:space="preserve" text-anchor="start" x="355.88" y="-184.62" font-family="Times New Roman,Times,Liberation Serif,serif" font-size="14.00">User</text>
<polygon fill="none" stroke="black" points="228.75,-155.92 228.75,-178.42 301.5,-178.42 301.5,-155.92 228.75,-155.92"/>
<text xml:space="preserve" text-anchor="start" x="237.75" y="-162.12" font-family="Times New Roman,Times,Liberation Serif,serif" font-size="14.00">start_time</text>
<polygon fill="none" stroke="black" points="301.5,-155.92 301.5,-178.42 435.75,-178.42 435.75,-155.92 301.5,-155.92"/>
<text xml:space="preserve" text-anchor="start" x="356.25" y="-162.12" font-family="Times New Roman,Times,Liberation Serif,serif" font-size="14.00">float</text>
<polygon fill="none" stroke="black" points="228.75,-133.42 228.75,-155.92 301.5,-155.92 301.5,-133.42 228.75,-133.42"/>
<text xml:space="preserve" text-anchor="start" x="239.62" y="-139.62" font-family="Times New Roman,Times,Liberation Serif,serif" font-size="14.00">end_time</text>
<polygon fill="none" stroke="black" points="301.5,-133.42 301.5,-155.92 435.75,-155.92 435.75,-133.42 301.5,-133.42"/>
<text xml:space="preserve" text-anchor="start" x="356.25" y="-139.62" font-family="Times New Roman,Times,Liberation Serif,serif" font-size="14.00">float</text>
<polygon fill="none" stroke="black" points="228.75,-110.92 228.75,-133.42 301.5,-133.42 301.5,-110.92 228.75,-110.92"/>
<text xml:space="preserve" text-anchor="start" x="247.88" y="-117.12" font-family="Times New Roman,Times,Liberation Serif,serif" font-size="14.00">events</text>
<polygon fill="none" stroke="black" points="301.5,-110.92 301.5,-133.42 435.75,-133.42 435.75,-110.92 301.5,-110.92"/>
<text xml:space="preserve" text-anchor="start" x="319.88" y="-117.12" font-family="Times New Roman,Times,Liberation Serif,serif" font-size="14.00">list[dict[str, Any]]</text>
<polygon fill="none" stroke="black" points="228.75,-88.42 228.75,-110.92 301.5,-110.92 301.5,-88.42 228.75,-88.42"/>
<text xml:space="preserve" text-anchor="start" x="235.5" y="-94.62" font-family="Times New Roman,Times,Liberation Serif,serif" font-size="14.00">frames_dir</text>
<polygon fill="none" stroke="black" points="301.5,-88.42 301.5,-110.92 435.75,-110.92 435.75,-88.42 301.5,-88.42"/>
<text xml:space="preserve" text-anchor="start" x="361.88" y="-94.62" font-family="Times New Roman,Times,Liberation Serif,serif" font-size="14.00">str</text>
<polygon fill="none" stroke="black" points="228.75,-65.92 228.75,-88.42 301.5,-88.42 301.5,-65.92 228.75,-65.92"/>
<text xml:space="preserve" text-anchor="start" x="241.12" y="-72.12" font-family="Times New Roman,Times,Liberation Serif,serif" font-size="14.00">filename</text>
<polygon fill="none" stroke="black" points="301.5,-65.92 301.5,-88.42 435.75,-88.42 435.75,-65.92 301.5,-65.92"/>
<text xml:space="preserve" text-anchor="start" x="361.88" y="-72.12" font-family="Times New Roman,Times,Liberation Serif,serif" font-size="14.00">str</text>
<polygon fill="none" stroke="black" points="228.75,-43.42 228.75,-65.92 301.5,-65.92 301.5,-43.42 228.75,-43.42"/>
<text xml:space="preserve" text-anchor="start" x="231.75" y="-49.62" font-family="Times New Roman,Times,Liberation Serif,serif" font-size="14.00">token_count</text>
<polygon fill="none" stroke="black" points="301.5,-43.42 301.5,-65.92 435.75,-65.92 435.75,-43.42 301.5,-43.42"/>
<text xml:space="preserve" text-anchor="start" x="304.5" y="-49.62" font-family="Times New Roman,Times,Liberation Serif,serif" font-size="14.00">Optional[dict[str, Any]]</text>
</a>
</g>
</g>
<!-- __main__.Edit&#45;&gt;__main__.Brep -->
<g id="edge2" class="edge">
<title>__main__.Edit:e&#45;&gt;__main__.Brep:w</title>
<path fill="none" stroke="black" d="M445.64,-211.63C490.54,-206.53 494.32,-166.6 543.75,-154.17 620.69,-134.81 656.09,-110.39 722.25,-154.17 820.14,-218.94 717.35,-392.25 815.42,-407.36"/>
<polyline fill="none" stroke="black" points="435.75,-212.17 440.74,-211.9"/>
<polyline fill="none" stroke="black" points="440.74,-211.9 445.74,-211.62"/>
<polyline fill="none" stroke="black" points="830.25,-408.42 825.26,-408.06"/>
<polygon fill="black" stroke="black" points="824.62,-403 823.91,-412.98 821.92,-412.84 822.62,-402.86 824.62,-403"/>
<polyline fill="none" stroke="black" points="825.26,-408.06 820.28,-407.71"/>
<polygon fill="black" stroke="black" points="819.63,-402.65 818.92,-412.62 816.93,-412.48 817.64,-402.51 819.63,-402.65"/>
<polyline fill="none" stroke="black" points="820.28,-407.71 815.29,-407.35"/>
</g>
<!-- __main__.Edit&#45;&gt;__main__.User -->
<g id="edge4" class="edge">
<title>__main__.Edit:e&#45;&gt;__main__.User:w</title>
<path fill="none" stroke="black" d="M445.45,-189.14C492.51,-183.8 493.47,-139.15 543.75,-121.17 757.06,-44.9 868.99,47 1052.25,-86.17 1173.65,-174.38 1016.35,-402.36 1145.44,-417.84"/>
<polyline fill="none" stroke="black" points="435.75,-189.67 440.74,-189.4"/>
<polyline fill="none" stroke="black" points="440.74,-189.4 445.74,-189.13"/>
<polyline fill="none" stroke="black" points="1160.25,-418.67 1155.26,-418.39"/>
<polygon fill="black" stroke="black" points="1154.54,-413.34 1153.98,-423.32 1151.98,-423.21 1152.54,-413.23 1154.54,-413.34"/>
<polyline fill="none" stroke="black" points="1155.26,-418.39 1150.27,-418.11"/>
<polygon fill="black" stroke="black" points="1149.55,-413.06 1148.99,-423.04 1146.99,-422.93 1147.55,-412.95 1149.55,-413.06"/>
<polyline fill="none" stroke="black" points="1150.27,-418.11 1145.27,-417.83"/>
</g>
<!-- __main__.Request -->
<g id="node4" class="node">
<title>__main__.Request</title>
<g id="a_node4"><a xlink:title="__main__.Request&#10;&#10;Requests collection &#45; edit requests with instructions.&#10;">
<polygon fill="none" stroke="black" points="543.75,-509.67 543.75,-532.17 722.25,-532.17 722.25,-509.67 543.75,-509.67"/>
<text xml:space="preserve" text-anchor="start" x="609.75" y="-516.87" font-family="Times New Roman,Times,Liberation Serif,serif" font-weight="bold" font-size="14.00">Request</text>
<polygon fill="none" stroke="black" points="543.75,-487.17 543.75,-509.67 618.75,-509.67 618.75,-487.17 543.75,-487.17"/>
<text xml:space="preserve" text-anchor="start" x="576" y="-493.37" font-family="Times New Roman,Times,Liberation Serif,serif" font-size="14.00">id</text>
<polygon fill="none" stroke="black" points="618.75,-487.17 618.75,-509.67 722.25,-509.67 722.25,-487.17 618.75,-487.17"/>
<text xml:space="preserve" text-anchor="start" x="663.75" y="-493.37" font-family="Times New Roman,Times,Liberation Serif,serif" font-size="14.00">str</text>
<polygon fill="none" stroke="black" points="543.75,-464.67 543.75,-487.17 618.75,-487.17 618.75,-464.67 543.75,-464.67"/>
<text xml:space="preserve" text-anchor="start" x="570" y="-470.87" font-family="Times New Roman,Times,Liberation Serif,serif" font-size="14.00">user</text>
<polygon fill="none" stroke="black" points="618.75,-464.67 618.75,-487.17 722.25,-487.17 722.25,-464.67 618.75,-464.67"/>
<text xml:space="preserve" text-anchor="start" x="657.75" y="-470.87" font-family="Times New Roman,Times,Liberation Serif,serif" font-size="14.00">User</text>
<polygon fill="none" stroke="black" points="543.75,-442.17 543.75,-464.67 618.75,-464.67 618.75,-442.17 543.75,-442.17"/>
<text xml:space="preserve" text-anchor="start" x="556.12" y="-448.37" font-family="Times New Roman,Times,Liberation Serif,serif" font-size="14.00">difficulty</text>
<polygon fill="none" stroke="black" points="618.75,-442.17 618.75,-464.67 722.25,-464.67 722.25,-442.17 618.75,-442.17"/>
<text xml:space="preserve" text-anchor="start" x="663.75" y="-448.37" font-family="Times New Roman,Times,Liberation Serif,serif" font-size="14.00">str</text>
<polygon fill="none" stroke="black" points="543.75,-419.67 543.75,-442.17 618.75,-442.17 618.75,-419.67 543.75,-419.67"/>
<text xml:space="preserve" text-anchor="start" x="554.25" y="-425.87" font-family="Times New Roman,Times,Liberation Serif,serif" font-size="14.00">brep_start</text>
<polygon fill="none" stroke="black" points="618.75,-419.67 618.75,-442.17 722.25,-442.17 722.25,-419.67 618.75,-419.67"/>
<text xml:space="preserve" text-anchor="start" x="657.38" y="-425.87" font-family="Times New Roman,Times,Liberation Serif,serif" font-size="14.00">Brep</text>
<polygon fill="none" stroke="black" points="543.75,-397.17 543.75,-419.67 618.75,-419.67 618.75,-397.17 543.75,-397.17"/>
<text xml:space="preserve" text-anchor="start" x="553.88" y="-403.37" font-family="Times New Roman,Times,Liberation Serif,serif" font-size="14.00">start_time</text>
<polygon fill="none" stroke="black" points="618.75,-397.17 618.75,-419.67 722.25,-419.67 722.25,-397.17 618.75,-397.17"/>
<text xml:space="preserve" text-anchor="start" x="658.12" y="-403.37" font-family="Times New Roman,Times,Liberation Serif,serif" font-size="14.00">float</text>
<polygon fill="none" stroke="black" points="543.75,-374.67 543.75,-397.17 618.75,-397.17 618.75,-374.67 543.75,-374.67"/>
<text xml:space="preserve" text-anchor="start" x="555.75" y="-380.87" font-family="Times New Roman,Times,Liberation Serif,serif" font-size="14.00">end_time</text>
<polygon fill="none" stroke="black" points="618.75,-374.67 618.75,-397.17 722.25,-397.17 722.25,-374.67 618.75,-374.67"/>
<text xml:space="preserve" text-anchor="start" x="658.12" y="-380.87" font-family="Times New Roman,Times,Liberation Serif,serif" font-size="14.00">float</text>
<polygon fill="none" stroke="black" points="543.75,-352.17 543.75,-374.67 618.75,-374.67 618.75,-352.17 543.75,-352.17"/>
<text xml:space="preserve" text-anchor="start" x="571.12" y="-358.37" font-family="Times New Roman,Times,Liberation Serif,serif" font-size="14.00">text</text>
<polygon fill="none" stroke="black" points="618.75,-352.17 618.75,-374.67 722.25,-374.67 722.25,-352.17 618.75,-352.17"/>
<text xml:space="preserve" text-anchor="start" x="663.75" y="-358.37" font-family="Times New Roman,Times,Liberation Serif,serif" font-size="14.00">str</text>
<polygon fill="none" stroke="black" points="543.75,-329.67 543.75,-352.17 618.75,-352.17 618.75,-329.67 543.75,-329.67"/>
<text xml:space="preserve" text-anchor="start" x="564" y="-335.87" font-family="Times New Roman,Times,Liberation Serif,serif" font-size="14.00">events</text>
<polygon fill="none" stroke="black" points="618.75,-329.67 618.75,-352.17 722.25,-352.17 722.25,-329.67 618.75,-329.67"/>
<text xml:space="preserve" text-anchor="start" x="621.75" y="-335.87" font-family="Times New Roman,Times,Liberation Serif,serif" font-size="14.00">list[dict[str, Any]]</text>
<polygon fill="none" stroke="black" points="543.75,-307.17 543.75,-329.67 618.75,-329.67 618.75,-307.17 543.75,-307.17"/>
<text xml:space="preserve" text-anchor="start" x="551.62" y="-313.37" font-family="Times New Roman,Times,Liberation Serif,serif" font-size="14.00">frames_dir</text>
<polygon fill="none" stroke="black" points="618.75,-307.17 618.75,-329.67 722.25,-329.67 722.25,-307.17 618.75,-307.17"/>
<text xml:space="preserve" text-anchor="start" x="663.75" y="-313.37" font-family="Times New Roman,Times,Liberation Serif,serif" font-size="14.00">str</text>
<polygon fill="none" stroke="black" points="543.75,-284.67 543.75,-307.17 618.75,-307.17 618.75,-284.67 543.75,-284.67"/>
<text xml:space="preserve" text-anchor="start" x="557.25" y="-290.87" font-family="Times New Roman,Times,Liberation Serif,serif" font-size="14.00">filename</text>
<polygon fill="none" stroke="black" points="618.75,-284.67 618.75,-307.17 722.25,-307.17 722.25,-284.67 618.75,-284.67"/>
<text xml:space="preserve" text-anchor="start" x="663.75" y="-290.87" font-family="Times New Roman,Times,Liberation Serif,serif" font-size="14.00">str</text>
<polygon fill="none" stroke="black" points="543.75,-262.17 543.75,-284.67 618.75,-284.67 618.75,-262.17 543.75,-262.17"/>
<text xml:space="preserve" text-anchor="start" x="546.75" y="-268.37" font-family="Times New Roman,Times,Liberation Serif,serif" font-size="14.00">request_type</text>
<polygon fill="none" stroke="black" points="618.75,-262.17 618.75,-284.67 722.25,-284.67 722.25,-262.17 618.75,-262.17"/>
<text xml:space="preserve" text-anchor="start" x="663.75" y="-268.37" font-family="Times New Roman,Times,Liberation Serif,serif" font-size="14.00">str</text>
<polygon fill="none" stroke="black" points="543.75,-239.67 543.75,-262.17 618.75,-262.17 618.75,-239.67 543.75,-239.67"/>
<text xml:space="preserve" text-anchor="start" x="549.75" y="-245.87" font-family="Times New Roman,Times,Liberation Serif,serif" font-size="14.00">instructions</text>
<polygon fill="none" stroke="black" points="618.75,-239.67 618.75,-262.17 722.25,-262.17 722.25,-239.67 618.75,-239.67"/>
<text xml:space="preserve" text-anchor="start" x="663.75" y="-245.87" font-family="Times New Roman,Times,Liberation Serif,serif" font-size="14.00">str</text>
<polygon fill="none" stroke="black" points="543.75,-217.17 543.75,-239.67 618.75,-239.67 618.75,-217.17 543.75,-217.17"/>
<text xml:space="preserve" text-anchor="start" x="556.88" y="-223.37" font-family="Times New Roman,Times,Liberation Serif,serif" font-size="14.00">modality</text>
<polygon fill="none" stroke="black" points="618.75,-217.17 618.75,-239.67 722.25,-239.67 722.25,-217.17 618.75,-217.17"/>
<text xml:space="preserve" text-anchor="start" x="663.75" y="-223.37" font-family="Times New Roman,Times,Liberation Serif,serif" font-size="14.00">str</text>
<polygon fill="none" stroke="black" points="543.75,-194.67 543.75,-217.17 618.75,-217.17 618.75,-194.67 543.75,-194.67"/>
<text xml:space="preserve" text-anchor="start" x="555.75" y="-200.87" font-family="Times New Roman,Times,Liberation Serif,serif" font-size="14.00">assembly</text>
<polygon fill="none" stroke="black" points="618.75,-194.67 618.75,-217.17 722.25,-217.17 722.25,-194.67 618.75,-194.67"/>
<text xml:space="preserve" text-anchor="start" x="658.5" y="-200.87" font-family="Times New Roman,Times,Liberation Serif,serif" font-size="14.00">bool</text>
<polygon fill="none" stroke="black" points="543.75,-172.17 543.75,-194.67 618.75,-194.67 618.75,-172.17 543.75,-172.17"/>
<text xml:space="preserve" text-anchor="start" x="552" y="-178.37" font-family="Times New Roman,Times,Liberation Serif,serif" font-size="14.00">parametric</text>
<polygon fill="none" stroke="black" points="618.75,-172.17 618.75,-194.67 722.25,-194.67 722.25,-172.17 618.75,-172.17"/>
<text xml:space="preserve" text-anchor="start" x="658.5" y="-178.37" font-family="Times New Roman,Times,Liberation Serif,serif" font-size="14.00">bool</text>
</a>
</g>
</g>
<!-- __main__.Edit&#45;&gt;__main__.Request -->
<g id="edge3" class="edge">
<title>__main__.Edit:e&#45;&gt;__main__.Request:w</title>
<path fill="none" stroke="black" d="M445.54,-235.21C558.75,-248.45 423.27,-499.05 528.84,-519.58"/>
<polyline fill="none" stroke="black" points="435.75,-234.67 440.74,-234.94"/>
<polyline fill="none" stroke="black" points="440.74,-234.94 445.73,-235.22"/>
<polyline fill="none" stroke="black" points="543.75,-520.92 538.77,-520.47"/>
<polygon fill="black" stroke="black" points="538.22,-515.4 537.33,-525.36 535.34,-525.18 536.23,-515.22 538.22,-515.4"/>
<polyline fill="none" stroke="black" points="538.77,-520.47 533.79,-520.02"/>
<polygon fill="black" stroke="black" points="533.24,-514.95 532.35,-524.91 530.36,-524.74 531.25,-514.78 533.24,-514.95"/>
<polyline fill="none" stroke="black" points="533.79,-520.02 528.81,-519.58"/>
</g>
<!-- __main__.Request&#45;&gt;__main__.Brep -->
<g id="edge7" class="edge">
<title>__main__.Request:e&#45;&gt;__main__.Brep:w</title>
<path fill="none" stroke="black" d="M732.04,-430.6C768.09,-428.18 781.5,-412.74 815.52,-409.16"/>
<polyline fill="none" stroke="black" points="722.25,-430.92 727.25,-430.75"/>
<polyline fill="none" stroke="black" points="727.25,-430.75 732.24,-430.59"/>
<polyline fill="none" stroke="black" points="830.25,-408.42 825.26,-408.67"/>
<polygon fill="black" stroke="black" points="824.01,-403.73 824.51,-413.71 822.51,-413.81 822.01,-403.83 824.01,-403.73"/>
<polyline fill="none" stroke="black" points="825.26,-408.67 820.26,-408.92"/>
<polygon fill="black" stroke="black" points="819.01,-403.98 819.52,-413.96 817.52,-414.07 817.01,-404.08 819.01,-403.98"/>
<polyline fill="none" stroke="black" points="820.26,-408.92 815.27,-409.17"/>
</g>
<!-- __main__.Request&#45;&gt;__main__.User -->
<g id="edge8" class="edge">
<title>__main__.Request:e&#45;&gt;__main__.User:w</title>
<path fill="none" stroke="black" d="M732.03,-475.89C871.56,-475.18 909.48,-459.2 1052.25,-438.17 1095.23,-431.84 1108.63,-421.31 1145.5,-419.09"/>
<polyline fill="none" stroke="black" points="722.25,-475.92 727.25,-475.9"/>
<polyline fill="none" stroke="black" points="727.25,-475.9 732.25,-475.89"/>
<polyline fill="none" stroke="black" points="1160.25,-418.67 1155.25,-418.81"/>
<polygon fill="black" stroke="black" points="1154.11,-413.84 1154.4,-423.84 1152.4,-423.89 1152.11,-413.9 1154.11,-413.84"/>
<polyline fill="none" stroke="black" points="1155.25,-418.81 1150.25,-418.95"/>
<polygon fill="black" stroke="black" points="1149.11,-413.98 1149.4,-423.98 1147.4,-424.04 1147.11,-414.04 1149.11,-413.98"/>
<polyline fill="none" stroke="black" points="1150.25,-418.95 1145.26,-419.1"/>
</g>
<!-- __main__.Rating -->
<g id="node5" class="node">
<title>__main__.Rating</title>
<g id="a_node5"><a xlink:title="__main__.Rating&#10;&#10;Ratings collection &#45; individual edit evaluations.&#10;">
<polygon fill="none" stroke="black" points="0,-502.67 0,-525.17 120.75,-525.17 120.75,-502.67 0,-502.67"/>
<text xml:space="preserve" text-anchor="start" x="40.88" y="-509.87" font-family="Times New Roman,Times,Liberation Serif,serif" font-weight="bold" font-size="14.00">Rating</text>
<polygon fill="none" stroke="black" points="0,-480.17 0,-502.67 42.75,-502.67 42.75,-480.17 0,-480.17"/>
<text xml:space="preserve" text-anchor="start" x="10.12" y="-486.37" font-family="Times New Roman,Times,Liberation Serif,serif" font-size="14.00">user</text>
<polygon fill="none" stroke="black" points="42.75,-480.17 42.75,-502.67 120.75,-502.67 120.75,-480.17 42.75,-480.17"/>
<text xml:space="preserve" text-anchor="start" x="69" y="-486.37" font-family="Times New Roman,Times,Liberation Serif,serif" font-size="14.00">User</text>
<polygon fill="none" stroke="black" points="0,-457.67 0,-480.17 42.75,-480.17 42.75,-457.67 0,-457.67"/>
<text xml:space="preserve" text-anchor="start" x="11.25" y="-463.87" font-family="Times New Roman,Times,Liberation Serif,serif" font-size="14.00">edit</text>
<polygon fill="none" stroke="black" points="42.75,-457.67 42.75,-480.17 120.75,-480.17 120.75,-457.67 42.75,-457.67"/>
<text xml:space="preserve" text-anchor="start" x="70.5" y="-463.87" font-family="Times New Roman,Times,Liberation Serif,serif" font-size="14.00">Edit</text>
<polygon fill="none" stroke="black" points="0,-435.17 0,-457.67 42.75,-457.67 42.75,-435.17 0,-435.17"/>
<text xml:space="preserve" text-anchor="start" x="3" y="-441.37" font-family="Times New Roman,Times,Liberation Serif,serif" font-size="14.00">ratings</text>
<polygon fill="none" stroke="black" points="42.75,-435.17 42.75,-457.67 120.75,-457.67 120.75,-435.17 42.75,-435.17"/>
<text xml:space="preserve" text-anchor="start" x="45.75" y="-441.37" font-family="Times New Roman,Times,Liberation Serif,serif" font-size="14.00">dict[str, Any]</text>
</a>
</g>
</g>
<!-- __main__.Rating&#45;&gt;__main__.User -->
<g id="edge6" class="edge">
<title>__main__.Rating:e&#45;&gt;__main__.User:w</title>
<path fill="none" stroke="black" d="M130.5,-491.45C390.99,-493.49 458.25,-576.7 722.25,-550.17 871.16,-535.2 912.68,-537.19 1052.25,-483.17 1099.3,-464.95 1103.85,-427.09 1145.37,-419.87"/>
<polyline fill="none" stroke="black" points="120.75,-491.42 125.75,-491.44"/>
<polyline fill="none" stroke="black" points="125.75,-491.44 130.75,-491.46"/>
<polyline fill="none" stroke="black" points="1160.25,-418.67 1155.27,-419.07"/>
<polygon fill="black" stroke="black" points="1153.87,-414.17 1154.67,-424.13 1152.68,-424.3 1151.87,-414.33 1153.87,-414.17"/>
<polyline fill="none" stroke="black" points="1155.27,-419.07 1150.28,-419.47"/>
<polygon fill="black" stroke="black" points="1148.88,-414.57 1149.69,-424.54 1147.7,-424.7 1146.89,-414.73 1148.88,-414.57"/>
<polyline fill="none" stroke="black" points="1150.28,-419.47 1145.3,-419.88"/>
</g>
<!-- __main__.Rating&#45;&gt;__main__.Edit -->
<g id="edge5" class="edge">
<title>__main__.Rating:e&#45;&gt;__main__.Edit:w</title>
<path fill="none" stroke="black" d="M130.3,-468.23C207.02,-456.57 143.73,-299.75 214.01,-281.41"/>
<polyline fill="none" stroke="black" points="120.75,-468.92 125.74,-468.56"/>
<polyline fill="none" stroke="black" points="125.74,-468.56 130.72,-468.2"/>
<polyline fill="none" stroke="black" points="228.75,-279.67 223.78,-280.25"/>
<polygon fill="black" stroke="black" points="222.2,-275.41 223.38,-285.34 221.39,-285.57 220.22,-275.64 222.2,-275.41"/>
<polyline fill="none" stroke="black" points="223.78,-280.25 218.82,-280.84"/>
<polygon fill="black" stroke="black" points="217.24,-276 218.41,-285.93 216.43,-286.16 215.25,-276.23 217.24,-276"/>
<polyline fill="none" stroke="black" points="218.82,-280.84 213.85,-281.43"/>
</g>
</g>
</svg>
